<svg width="336" height="336" viewBox="0 0 336 336" fill="none" xmlns="http://www.w3.org/2000/svg">
<path fill-rule="evenodd" clip-rule="evenodd" d="M252.255 313.377C227.487 327.763 198.705 336 168 336C75.2162 336 0 260.784 0 168C0 75.2162 75.2162 0 168 0C260.784 0 336 75.2162 336 168C336 198.705 327.763 227.487 313.377 252.255C311.607 252.086 309.814 252 308 252C277.072 252 252 277.072 252 308C252 309.814 252.086 311.607 252.255 313.377ZM266 168C266 222.124 222.124 266 168 266C113.876 266 70 222.124 70 168C70 113.876 113.876 70 168 70C222.124 70 266 113.876 266 168ZM335.956 307.99C335.956 323.454 323.42 335.99 307.956 335.99C292.492 335.99 279.956 323.454 279.956 307.99C279.956 292.526 292.492 279.99 307.956 279.99C323.42 279.99 335.956 292.526 335.956 307.99Z" fill="#514698"/>
<path fill-rule="evenodd" clip-rule="evenodd" d="M252.255 313.377C227.487 327.763 198.705 336 168 336C75.2162 336 0 260.784 0 168C0 75.2162 75.2162 0 168 0C260.784 0 336 75.2162 336 168C336 198.705 327.763 227.487 313.377 252.255C311.607 252.086 309.814 252 308 252C277.072 252 252 277.072 252 308C252 309.814 252.086 311.607 252.255 313.377ZM266 168C266 222.124 222.124 266 168 266C113.876 266 70 222.124 70 168C70 113.876 113.876 70 168 70C222.124 70 266 113.876 266 168ZM335.956 307.99C335.956 323.454 323.42 335.99 307.956 335.99C292.492 335.99 279.956 323.454 279.956 307.99C279.956 292.526 292.492 279.99 307.956 279.99C323.42 279.99 335.956 292.526 335.956 307.99Z" fill="white" fill-opacity="0.1"/>
<path opacity="0.2" d="M113.176 93.2637H35.2042C29.6077 93.2637 25.0708 97.8006 25.0708 103.397V181.369C25.0708 186.965 29.6077 191.502 35.2042 191.502H113.176C118.772 191.502 123.309 186.965 123.309 181.369V103.397C123.309 97.8006 118.772 93.2637 113.176 93.2637Z" fill="#514698"/>
<path opacity="0.2" d="M228.144 72.4292H134.161C127.412 72.4292 121.94 77.9004 121.94 84.6496V178.633C121.94 185.382 127.412 190.853 134.161 190.853H228.144C234.893 190.853 240.364 185.382 240.364 178.633V84.6496C240.364 77.9004 234.893 72.4292 228.144 72.4292Z" fill="#514698"/>
<path d="M126.439 82.481H61.1173C56.4236 82.481 52.6187 86.2859 52.6187 90.9796V156.302C52.6187 160.995 56.4236 164.8 61.1173 164.8H126.439C131.133 164.8 134.938 160.995 134.938 156.302V90.9796C134.938 86.2859 131.133 82.481 126.439 82.481Z" fill="#2697FE"/>
<path opacity="0.3" d="M126.439 82.481H61.1173C56.4236 82.481 52.6187 86.2859 52.6187 90.9796V156.302C52.6187 160.995 56.4236 164.8 61.1173 164.8H126.439C131.133 164.8 134.938 160.995 134.938 156.302V90.9796C134.938 86.2859 131.133 82.481 126.439 82.481Z" fill="white"/>
<path d="M100.12 114.134V109.16L97.5581 108.916C97.2223 107.262 96.573 105.688 95.6451 104.279L97.2914 102.284L93.8132 98.806L91.8305 100.452C90.4192 99.5278 88.8456 98.8787 87.1928 98.5394L86.9377 95.9307H81.9638L81.7435 98.5394C80.0907 98.8787 78.5171 99.5278 77.1058 100.452L75.1232 98.806L71.6449 102.284L73.2913 104.279C72.3634 105.688 71.714 107.262 71.3782 108.916L68.8159 109.16V114.134L71.3782 114.377C71.7175 116.03 72.3667 117.604 73.2913 119.015L71.6449 121.009L75.1232 124.487L77.1058 122.841C78.5171 123.766 80.0907 124.415 81.7435 124.754L81.987 127.316H86.9609L87.2044 124.754C88.8572 124.415 90.4308 123.766 91.8421 122.841L93.8248 124.487L97.303 121.009L95.6566 118.98C96.5813 117.569 97.2304 115.995 97.5697 114.342L100.12 114.134ZM84.4566 118.389C83.121 118.391 81.8148 117.997 80.7033 117.256C79.5919 116.516 78.7252 115.462 78.213 114.229C77.7008 112.995 77.5662 111.637 77.8262 110.327C78.0862 109.017 78.7291 107.814 79.6735 106.869C80.6179 105.925 81.8214 105.282 83.1314 105.022C84.4414 104.762 85.7992 104.897 87.0326 105.409C88.2661 105.921 89.3199 106.788 90.0605 107.899C90.8011 109.011 91.1951 110.317 91.1928 111.652C91.1898 113.438 90.4791 115.15 89.2165 116.412C87.9538 117.675 86.2422 118.386 84.4566 118.389Z" fill="white"/>
<path d="M120.295 128.197V124.29L118.289 124.104C118.024 122.818 117.516 121.595 116.793 120.499L118.08 118.945L115.367 116.186L113.814 117.473C112.717 116.75 111.494 116.242 110.208 115.977L110.022 113.959H106.092L105.906 115.977C104.62 116.242 103.396 116.75 102.3 117.473L100.747 116.186L97.9757 118.945L99.2627 120.499C98.5398 121.595 98.0322 122.818 97.7671 124.104L95.7612 124.29V128.197L97.7671 128.383C98.0322 129.669 98.5398 130.892 99.2627 131.989L97.9757 133.542L100.735 136.302L102.289 135.015C103.385 135.738 104.609 136.245 105.895 136.51L106.08 138.516H109.987L110.173 136.51C111.459 136.245 112.683 135.738 113.779 135.015L115.332 136.302L118.092 133.542L116.805 131.989C117.528 130.892 118.035 129.669 118.3 128.383L120.295 128.197ZM108.016 131.525C106.971 131.525 105.949 131.215 105.079 130.634C104.21 130.053 103.532 129.227 103.132 128.261C102.732 127.295 102.627 126.232 102.831 125.206C103.035 124.181 103.539 123.239 104.278 122.499C105.017 121.76 105.959 121.256 106.985 121.052C108.011 120.848 109.074 120.953 110.04 121.353C111.006 121.753 111.831 122.431 112.412 123.301C112.993 124.17 113.303 125.192 113.303 126.238C113.303 127.64 112.746 128.985 111.755 129.976C110.763 130.968 109.419 131.525 108.016 131.525Z" fill="white"/>
<path d="M100.12 139.27V135.988L98.4273 135.838C98.207 134.758 97.782 133.731 97.1752 132.812L98.2534 131.501L95.9346 129.183L94.6244 130.261C93.7028 129.658 92.6764 129.233 91.5983 129.009L91.436 127.316H88.1548L87.9925 129.009C86.9144 129.233 85.888 129.658 84.9664 130.261L83.6562 129.183L81.3374 131.501L82.4157 132.812C81.8089 133.731 81.3838 134.758 81.1635 135.838L79.4707 135.988V139.27L81.1635 139.432C81.3881 140.51 81.8128 141.536 82.4157 142.458L81.3374 143.768L83.6562 146.087L84.9664 145.009C85.8899 145.61 86.9154 146.039 87.9925 146.273L88.1548 147.954H91.436L91.5983 146.273C92.6754 146.039 93.7009 145.61 94.6244 145.009L95.9346 146.087L98.2534 143.768L97.1752 142.458C97.778 141.536 98.2027 140.51 98.4273 139.432L100.12 139.27ZM89.8592 142.064C88.9799 142.066 88.1198 141.807 87.3878 141.32C86.6557 140.833 86.0848 140.14 85.7472 139.328C85.4097 138.516 85.3208 137.622 85.4918 136.76C85.6627 135.897 86.0859 135.105 86.7076 134.483C87.3293 133.862 88.1216 133.438 88.9841 133.267C89.8466 133.096 90.7404 133.185 91.5523 133.523C92.3642 133.86 93.0576 134.431 93.5446 135.163C94.0317 135.895 94.2905 136.756 94.2882 137.635C94.2882 138.809 93.8216 139.936 92.991 140.767C92.1604 141.597 91.0338 142.064 89.8592 142.064Z" fill="white"/>
<path opacity="0.2" d="M129.917 82.481H64.5953C59.9016 82.481 56.0967 86.2859 56.0967 90.9796V156.302C56.0967 160.995 59.9016 164.8 64.5953 164.8H129.917C134.611 164.8 138.416 160.995 138.416 156.302V90.9796C138.416 86.2859 134.611 82.481 129.917 82.481Z" fill="white"/>
<path opacity="0.2" d="M254.788 188.615H182.707C177.533 188.615 173.338 192.81 173.338 197.983V270.065C173.338 275.239 177.533 279.433 182.707 279.433H254.788C259.962 279.433 264.156 275.239 264.156 270.065V197.983C264.156 192.81 259.962 188.615 254.788 188.615Z" fill="#514698"/>
<path d="M264.4 183.757H204.006C199.671 183.757 196.156 187.271 196.156 191.606V252.001C196.156 256.336 199.671 259.85 204.006 259.85H264.4C268.735 259.85 272.249 256.336 272.249 252.001V191.606C272.249 187.271 268.735 183.757 264.4 183.757Z" fill="#2697FE"/>
<path opacity="0.2" d="M264.4 183.757H204.006C199.671 183.757 196.156 187.271 196.156 191.606V252.001C196.156 256.336 199.671 259.85 204.006 259.85H264.4C268.735 259.85 272.249 256.336 272.249 252.001V191.606C272.249 187.271 268.735 183.757 264.4 183.757Z" fill="white"/>
<path d="M237.107 234.03C237.107 234.574 236.946 235.106 236.643 235.558C236.341 236.01 235.911 236.362 235.408 236.57C234.905 236.777 234.352 236.831 233.819 236.724C233.285 236.617 232.796 236.354 232.412 235.969C232.028 235.584 231.767 235.093 231.663 234.559C231.558 234.025 231.614 233.472 231.824 232.97C232.034 232.469 232.388 232.04 232.841 231.74C233.294 231.439 233.827 231.28 234.371 231.282C235.098 231.285 235.793 231.576 236.306 232.091C236.819 232.606 237.107 233.303 237.107 234.03Z" fill="white"/>
<path d="M234.127 206.621C230.543 206.62 226.995 207.324 223.685 208.695C220.374 210.065 217.366 212.075 214.832 214.608C212.299 217.142 210.289 220.15 208.919 223.461C207.548 226.771 206.844 230.319 206.845 233.902H228.631C228.595 233.176 228.713 232.451 228.978 231.774C229.243 231.097 229.648 230.484 230.168 229.976C230.687 229.467 231.309 229.075 231.991 228.824C232.674 228.574 233.401 228.471 234.127 228.523C234.683 228.55 235.234 228.655 235.761 228.836L245.976 216.975L238.764 231.004C239.328 231.864 239.623 232.874 239.611 233.902H261.454C261.454 230.316 260.747 226.765 259.373 223.452C257.999 220.139 255.986 217.129 253.447 214.595C250.909 212.061 247.896 210.053 244.581 208.684C241.266 207.316 237.713 206.615 234.127 206.621Z" fill="white"/>
<path opacity="0.2" d="M267.612 183.757H207.217C202.882 183.757 199.368 187.271 199.368 191.606V252.001C199.368 256.336 202.882 259.85 207.217 259.85H267.612C271.947 259.85 275.461 256.336 275.461 252.001V191.606C275.461 187.271 271.947 183.757 267.612 183.757Z" fill="white"/>
<path opacity="0.2" d="M276.922 116.035H213.675C209.135 116.035 205.455 119.715 205.455 124.255V187.502C205.455 192.042 209.135 195.722 213.675 195.722H276.922C281.462 195.722 285.142 192.042 285.142 187.502V124.255C285.142 119.715 281.462 116.035 276.922 116.035Z" fill="#514698"/>
<path d="M286.707 109.009H233.709C229.906 109.009 226.822 112.092 226.822 115.896V168.893C226.822 172.697 229.906 175.78 233.709 175.78H286.707C290.51 175.78 293.594 172.697 293.594 168.893V115.896C293.594 112.092 290.51 109.009 286.707 109.009Z" fill="#2697FE"/>
<path opacity="0.1" d="M286.707 109.009H233.709C229.906 109.009 226.822 112.092 226.822 115.896V168.893C226.822 172.697 229.906 175.78 233.709 175.78H286.707C290.51 175.78 293.594 172.697 293.594 168.893V115.896C293.594 112.092 290.51 109.009 286.707 109.009Z" fill="white"/>
<path d="M278.846 125.948C278.846 125.367 278.615 124.81 278.204 124.399C277.794 123.988 277.236 123.757 276.655 123.757H243.936C243.355 123.757 242.797 123.988 242.386 124.399C241.975 124.81 241.745 125.367 241.745 125.948V133.16C241.745 133.741 241.975 134.298 242.386 134.709C242.797 135.12 243.355 135.351 243.936 135.351H276.655C277.236 135.351 277.794 135.12 278.204 134.709C278.615 134.298 278.846 133.741 278.846 133.16V125.948ZM268.04 129.855H266.162V127.977H268.04V129.855ZM273.061 130.795C272.686 130.797 272.319 130.688 272.006 130.481C271.694 130.274 271.45 129.979 271.305 129.633C271.161 129.287 271.123 128.907 271.195 128.539C271.268 128.171 271.448 127.833 271.713 127.568C271.978 127.303 272.316 127.123 272.683 127.051C273.051 126.978 273.432 127.016 273.778 127.161C274.124 127.305 274.419 127.549 274.625 127.862C274.832 128.175 274.941 128.542 274.939 128.916C274.939 129.164 274.89 129.409 274.795 129.638C274.7 129.866 274.56 130.074 274.385 130.249C274.209 130.423 274.001 130.561 273.771 130.655C273.542 130.749 273.297 130.796 273.049 130.795H273.061Z" fill="white"/>
<path d="M278.846 138.702C278.846 138.12 278.615 137.563 278.204 137.152C277.794 136.741 277.236 136.51 276.655 136.51H243.936C243.355 136.51 242.797 136.741 242.386 137.152C241.975 137.563 241.745 138.12 241.745 138.702V145.913C241.745 146.494 241.975 147.052 242.386 147.463C242.797 147.874 243.355 148.105 243.936 148.105H276.655C277.236 148.105 277.794 147.874 278.204 147.463C278.615 147.052 278.846 146.494 278.846 145.913V138.702ZM268.04 143.339H266.162V141.461H268.04V143.339ZM273.061 144.278C272.689 144.278 272.326 144.168 272.017 143.962C271.708 143.755 271.468 143.462 271.325 143.119C271.183 142.776 271.146 142.398 271.219 142.034C271.291 141.669 271.47 141.335 271.733 141.072C271.995 140.809 272.33 140.63 272.694 140.558C273.059 140.485 273.436 140.523 273.78 140.665C274.123 140.807 274.416 141.048 274.622 141.357C274.829 141.666 274.939 142.029 274.939 142.4C274.939 142.647 274.89 142.892 274.795 143.12C274.699 143.348 274.56 143.555 274.384 143.728C274.208 143.902 274 144.039 273.771 144.131C273.541 144.224 273.296 144.27 273.049 144.267L273.061 144.278Z" fill="white"/>
<path d="M278.846 151.455C278.846 150.874 278.615 150.317 278.204 149.906C277.794 149.495 277.236 149.264 276.655 149.264H243.936C243.355 149.264 242.797 149.495 242.386 149.906C241.975 150.317 241.745 150.874 241.745 151.455V158.667C241.745 159.248 241.975 159.806 242.386 160.217C242.797 160.628 243.355 160.858 243.936 160.858H276.655C277.236 160.858 277.794 160.628 278.204 160.217C278.615 159.806 278.846 159.248 278.846 158.667V151.455ZM268.04 156.812H266.162V154.934H268.04V156.812ZM273.061 157.751C272.689 157.751 272.326 157.641 272.017 157.435C271.708 157.228 271.468 156.935 271.325 156.592C271.183 156.248 271.146 155.871 271.219 155.506C271.291 155.142 271.47 154.807 271.733 154.545C271.995 154.282 272.33 154.103 272.694 154.031C273.059 153.958 273.436 153.995 273.78 154.138C274.123 154.28 274.416 154.52 274.622 154.829C274.829 155.138 274.939 155.501 274.939 155.873C274.939 156.121 274.89 156.366 274.795 156.594C274.7 156.823 274.56 157.031 274.385 157.205C274.209 157.38 274.001 157.518 273.771 157.612C273.542 157.705 273.297 157.753 273.049 157.751H273.061Z" fill="white"/>
<path opacity="0.2" d="M289.536 109.009H236.539C232.735 109.009 229.652 112.092 229.652 115.896V168.893C229.652 172.697 232.735 175.78 236.539 175.78H289.536C293.34 175.78 296.423 172.697 296.423 168.893V115.896C296.423 112.092 293.34 109.009 289.536 109.009Z" fill="white"/>
<path opacity="0.2" d="M163.599 177.74H85.6275C80.031 177.74 75.4941 182.277 75.4941 187.873V265.845C75.4941 271.441 80.031 275.978 85.6275 275.978H163.599C169.196 275.978 173.732 271.441 173.732 265.845V187.873C173.732 182.277 169.196 177.74 163.599 177.74Z" fill="#514698"/>
<path d="M172.365 170.794H107.043C102.349 170.794 98.5439 174.599 98.5439 179.293V244.615C98.5439 249.309 102.349 253.114 107.043 253.114H172.365C177.058 253.114 180.863 249.309 180.863 244.615V179.293C180.863 174.599 177.058 170.794 172.365 170.794Z" fill="#2697FE"/>
<path opacity="0.5" d="M172.365 170.794H107.043C102.349 170.794 98.5439 174.599 98.5439 179.293V244.615C98.5439 249.309 102.349 253.114 107.043 253.114H172.365C177.058 253.114 180.863 249.309 180.863 244.615V179.293C180.863 174.599 177.058 170.794 172.365 170.794Z" fill="white"/>
<path d="M116.932 234.552C116.335 233.954 115.86 233.245 115.537 232.464C115.213 231.683 115.047 230.846 115.047 230.001C115.047 229.156 115.213 228.319 115.537 227.538C115.86 226.757 116.335 226.048 116.932 225.45L132.005 210.447C132.34 210.109 132.739 209.84 133.179 209.656C133.619 209.473 134.091 209.378 134.567 209.378C135.044 209.378 135.515 209.473 135.955 209.656C136.395 209.84 136.794 210.109 137.129 210.447L141.095 214.401C141.434 214.737 141.703 215.137 141.886 215.578C142.07 216.019 142.164 216.492 142.164 216.969C142.164 217.447 142.07 217.919 141.886 218.36C141.703 218.801 141.434 219.201 141.095 219.537L126.08 234.552C125.483 235.159 124.771 235.642 123.986 235.971C123.201 236.301 122.358 236.47 121.506 236.47C120.655 236.47 119.811 236.301 119.026 235.971C118.241 235.642 117.529 235.159 116.932 234.552Z" fill="white"/>
<path d="M144.596 209.844L141.64 206.888L158.602 189.925L162.301 189.183L161.559 192.882L144.596 209.844Z" fill="white"/>
<path d="M142.926 213.774L137.709 208.545C137.595 208.437 137.504 208.307 137.442 208.162C137.38 208.018 137.348 207.862 137.348 207.705C137.348 207.547 137.38 207.392 137.442 207.247C137.504 207.103 137.595 206.972 137.709 206.864C137.817 206.748 137.949 206.656 138.094 206.593C138.24 206.53 138.397 206.497 138.555 206.497C138.714 206.497 138.871 206.53 139.017 206.593C139.162 206.656 139.293 206.748 139.402 206.864L144.619 212.082C144.735 212.19 144.827 212.321 144.891 212.467C144.954 212.612 144.986 212.769 144.986 212.928C144.986 213.087 144.954 213.244 144.891 213.389C144.827 213.535 144.735 213.666 144.619 213.774C144.511 213.89 144.38 213.982 144.234 214.046C144.088 214.109 143.932 214.141 143.773 214.141C143.614 214.141 143.457 214.109 143.312 214.046C143.166 213.982 143.035 213.89 142.926 213.774Z" fill="white"/>
<path d="M135.901 203.757L128.747 196.58C130.08 192.998 127.379 188.592 124.445 187.433L124.387 192.951C124.387 193.566 124.143 194.156 123.708 194.591C123.273 195.026 122.684 195.27 122.069 195.27C121.454 195.27 120.864 195.026 120.429 194.591C119.994 194.156 119.75 193.566 119.75 192.951V187.525C118.404 188.071 117.242 188.989 116.4 190.172C115.558 191.355 115.071 192.754 114.996 194.204C115.013 195.916 115.65 197.563 116.788 198.842C117.926 200.121 119.489 200.945 121.187 201.16C122.37 201.342 123.579 201.173 124.666 200.673L131.877 207.908L135.901 203.757Z" fill="white"/>
<path d="M159.716 230.98V236.464C161.061 235.919 162.223 235.001 163.066 233.818C163.908 232.635 164.395 231.236 164.469 229.786C164.48 228.081 163.877 226.429 162.77 225.133C161.663 223.836 160.126 222.981 158.44 222.725C157.331 222.495 156.179 222.609 155.136 223.05L147.646 215.537L143.542 219.641L150.985 227.096C148.829 231.502 152.144 235.212 155.124 236.372V230.922C155.124 230.307 155.369 229.717 155.803 229.283C156.238 228.848 156.828 228.603 157.443 228.603C157.749 228.609 158.05 228.676 158.33 228.799C158.61 228.921 158.862 229.098 159.073 229.319C159.285 229.54 159.45 229.801 159.56 230.086C159.67 230.371 159.723 230.675 159.716 230.98Z" fill="white"/>
<path opacity="0.2" d="M175.843 170.794H110.521C105.827 170.794 102.022 174.599 102.022 179.293V244.615C102.022 249.309 105.827 253.114 110.521 253.114H175.843C180.536 253.114 184.341 249.309 184.341 244.615V179.293C184.341 174.599 180.536 170.794 175.843 170.794Z" fill="white"/>
<path d="M155.077 155.896H233.825C239.479 155.896 244.063 151.312 244.063 145.658V66.91C244.063 61.2558 239.479 56.6722 233.825 56.6722L155.077 56.6722C149.423 56.6722 144.839 61.2558 144.839 66.91V145.658C144.839 151.312 149.423 155.896 155.077 155.896Z" fill="#2697FE"/>
<path opacity="0.5" d="M155.077 155.896H233.825C239.479 155.896 244.063 151.312 244.063 145.658V66.91C244.063 61.2558 239.479 56.6722 233.825 56.6722L155.077 56.6722C149.423 56.6722 144.839 61.2558 144.839 66.91V145.658C144.839 151.312 149.423 155.896 155.077 155.896Z" fill="white"/>
<path d="M194.417 75.5361L164.063 87.455C164.063 87.455 167.901 129.194 194.452 137.021C221.014 129.194 224.852 87.455 224.852 87.455L194.417 75.5361ZM193.652 115.954C193.454 116.213 193.2 116.425 192.909 116.571C192.617 116.718 192.297 116.796 191.97 116.8C191.641 116.795 191.317 116.712 191.025 116.559C190.733 116.406 190.481 116.187 190.289 115.919L179.634 101.229C179.472 101.006 179.355 100.753 179.291 100.485C179.226 100.217 179.215 99.9387 179.258 99.6663C179.302 99.3939 179.398 99.1327 179.542 98.8975C179.686 98.6623 179.875 98.4578 180.098 98.2957C180.321 98.1335 180.574 98.0169 180.842 97.9524C181.11 97.888 181.388 97.877 181.661 97.92C181.933 97.9631 182.194 98.0594 182.429 98.2034C182.665 98.3475 182.869 98.5364 183.031 98.7595L192.028 111.142L206.73 91.7333C207.066 91.2916 207.563 91.0008 208.113 90.9248C208.663 90.8487 209.22 90.9935 209.663 91.3275C210.098 91.6994 210.38 92.2189 210.455 92.786C210.53 93.3532 210.392 93.928 210.069 94.4L193.652 115.954Z" fill="white"/>
<path opacity="0.2" d="M159.263 155.896H238.011C243.665 155.896 248.249 151.312 248.249 145.658V66.91C248.249 61.2558 243.665 56.6722 238.011 56.6722L159.263 56.6722C153.609 56.6722 149.025 61.2558 149.025 66.91V145.658C149.025 151.312 153.609 155.896 159.263 155.896Z" fill="white"/>
</svg>
