<svg width="256" height="160" viewBox="0 0 256 160" fill="none" xmlns="http://www.w3.org/2000/svg">
<path d="M237.509 160H8.9373C7.71315 160.013 6.49972 159.761 5.37377 159.262C4.24782 158.762 3.23387 158.025 2.39607 157.098C1.55828 156.17 0.914857 155.071 0.506547 153.872C0.0982362 152.672 -0.0660896 151.397 0.0239713 150.128L8.40174 9.88167C8.59468 7.22323 9.73661 4.73575 11.6034 2.90754C13.4701 1.07933 15.9269 0.0424342 18.4914 0.000388137H247.063C248.287 -0.0113009 249.501 0.241145 250.627 0.741778C251.753 1.24241 252.767 1.98035 253.604 2.90897C254.442 3.83758 255.085 4.93669 255.494 6.13685C255.902 7.33702 256.066 8.61214 255.976 9.88167L247.598 150.128C247.403 152.785 246.26 155.27 244.394 157.096C242.527 158.922 240.072 159.958 237.509 160Z" fill="#514698"/>
<path opacity="0.8" d="M237.509 160H8.9373C7.71315 160.013 6.49972 159.761 5.37377 159.262C4.24782 158.762 3.23387 158.025 2.39607 157.098C1.55828 156.17 0.914857 155.071 0.506547 153.872C0.0982362 152.672 -0.0660896 151.397 0.0239713 150.128L8.40174 9.88167C8.59468 7.22323 9.73661 4.73575 11.6034 2.90754C13.4701 1.07933 15.9269 0.0424342 18.4914 0.000388137H247.063C248.287 -0.0113009 249.501 0.241145 250.627 0.741778C251.753 1.24241 252.767 1.98035 253.604 2.90897C254.442 3.83758 255.085 4.93669 255.494 6.13685C255.902 7.33702 256.066 8.61214 255.976 9.88167L247.598 150.128C247.403 152.785 246.26 155.27 244.394 157.096C242.527 158.922 240.072 159.958 237.509 160Z" fill="white"/>
<path opacity="0.4" d="M38.2308 40.4106H11.0126C10.6657 40.4158 10.3215 40.3457 10.0021 40.2049C9.68266 40.0641 9.39497 39.8557 9.1574 39.5928C8.91982 39.33 8.73757 39.0185 8.62229 38.6783C8.507 38.3382 8.4612 37.9768 8.48783 37.6172L9.26248 24.694C9.3064 23.9344 9.62796 23.2211 10.1613 22.6999C10.6947 22.1788 11.3996 21.8893 12.1316 21.8906H39.3497L38.2308 40.4106Z" fill="white"/>
<path d="M246.92 2.47501H47.6226C45.6962 2.49281 43.8472 3.26529 42.4449 4.63819C41.0425 6.01108 40.1901 7.88333 40.0577 9.881L38.145 42.0598H10.9172C10.1852 42.0584 9.48037 42.3479 8.947 42.8691C8.41362 43.3902 8.09206 44.1036 8.04814 44.8631L7.33087 56.991C7.30284 57.3514 7.3476 57.7139 7.46225 58.0553C7.5769 58.3966 7.75893 58.7093 7.99666 58.9733C8.23438 59.2372 8.52256 59.4466 8.8427 59.588C9.16284 59.7294 9.50787 59.7997 9.85567 59.7944H37.0738L31.6799 150.128C31.6094 151.081 31.7308 152.039 32.0365 152.941C32.3422 153.843 32.8255 154.669 33.4554 155.366C34.0854 156.062 34.8482 156.615 35.6951 156.988C36.5421 157.362 37.4546 157.547 38.3745 157.533H237.671C239.598 157.516 241.447 156.743 242.849 155.37C244.251 153.997 245.104 152.125 245.236 150.128L253.614 9.881C253.686 8.92724 253.566 7.96835 253.261 7.06577C252.955 6.16319 252.472 5.33682 251.842 4.63961C251.212 3.94239 250.448 3.3897 249.601 3.01696C248.753 2.64421 247.84 2.45961 246.92 2.47501Z" fill="white"/>
<path opacity="0.4" d="M35.8779 79.1799H8.69796C8.34977 79.1851 8.00435 79.1148 7.68376 78.9735C7.36317 78.8322 7.07443 78.623 6.83597 78.3592C6.5975 78.0955 6.41455 77.7829 6.29878 77.4416C6.18301 77.1002 6.13696 76.7375 6.16358 76.3766L6.89043 64.2486C6.93435 63.4891 7.25591 62.7758 7.78928 62.2546C8.32266 61.7335 9.0275 61.4439 9.75952 61.4453H36.9777L35.8779 79.1799Z" fill="white"/>
<path opacity="0.4" d="M34.7589 98.5647H7.54072C7.19253 98.5699 6.84713 98.4996 6.52653 98.3583C6.20594 98.217 5.9172 98.0078 5.67874 97.744C5.44028 97.4802 5.25731 97.1677 5.14154 96.8263C5.02578 96.485 4.97974 96.1222 5.00636 95.7613L5.73319 83.6235C5.77945 82.8657 6.10204 82.1548 6.63516 81.6358C7.16829 81.1167 7.87181 80.8286 8.60228 80.8301H35.8204L34.7589 98.5647Z" fill="white"/>
<path opacity="0.4" d="M33.6019 117.949H6.38373C6.03596 117.953 5.69123 117.882 5.37131 117.74C5.0514 117.598 4.76325 117.389 4.52508 117.125C4.28691 116.862 4.1039 116.55 3.98759 116.209C3.87129 115.868 3.82421 115.506 3.84935 115.146L4.5762 103.008C4.63109 102.253 4.95601 101.546 5.48701 101.027C6.018 100.508 6.7166 100.215 7.4453 100.205H34.6634L33.6019 117.949Z" fill="white"/>
<path opacity="0.4" d="M32.4445 137.325H5.27412C4.91934 137.337 4.56601 137.271 4.23753 137.131C3.90906 136.992 3.61294 136.781 3.3688 136.513C3.12466 136.245 2.93806 135.926 2.82137 135.578C2.70468 135.229 2.66056 134.859 2.69193 134.491L3.41877 122.363C3.46269 121.604 3.78425 120.891 4.31762 120.369C4.85099 119.848 5.55584 119.559 6.28786 119.56H33.5156L32.4445 137.325Z" fill="white"/>
<path opacity="0.2" d="M10.6588 57.5386C10.5068 57.542 10.3559 57.5121 10.2159 57.4508C10.0758 57.3894 9.94977 57.2981 9.84598 57.1827C9.74219 57.0673 9.66298 56.9305 9.61353 56.7811C9.56407 56.6317 9.54546 56.4732 9.55895 56.3159L10.1902 45.6691C10.2184 45.3067 10.3748 44.968 10.6291 44.7184C10.8834 44.4687 11.2176 44.3258 11.5673 44.3172H34.6349C34.7868 44.3137 34.9377 44.3437 35.0778 44.405C35.2178 44.4663 35.3439 44.5577 35.4477 44.673C35.5514 44.7884 35.6306 44.9253 35.6801 45.0746C35.7296 45.224 35.7482 45.3826 35.7347 45.5399L35.1035 56.1966C35.073 56.5572 34.9156 56.8935 34.6616 57.1411C34.4075 57.3887 34.0745 57.5302 33.7263 57.5386H10.6588Z" fill="#514698"/>
<path opacity="0.3" d="M87.5218 19.1767H54.5941C54.0044 19.1811 53.4202 19.0585 52.8783 18.8168C52.3363 18.5751 51.8484 18.2194 51.4451 17.7722C51.0418 17.325 50.7318 16.7958 50.5348 16.2181C50.3377 15.6403 50.2578 15.0264 50.3 14.415C50.393 13.1356 50.9431 11.9385 51.8421 11.0592C52.7411 10.1799 53.9241 9.68197 55.1584 9.66328H88.0669C88.6562 9.65758 89.2402 9.77885 89.7821 10.0195C90.324 10.2601 90.8121 10.6148 91.2155 11.0612C91.619 11.5077 91.9291 12.0362 92.1262 12.6134C92.3234 13.1907 92.4033 13.8041 92.361 14.415C92.2664 15.6913 91.7187 16.8855 90.8244 17.7655C89.9301 18.6455 88.753 19.1485 87.5218 19.1767Z" fill="#514698"/>
<path d="M244.366 14.4249C244.275 15.7062 243.726 16.9057 242.827 17.787C241.928 18.6684 240.743 19.1677 239.507 19.1866C238.917 19.1924 238.332 19.0709 237.79 18.8297C237.247 18.5885 236.759 18.2328 236.355 17.7853C235.951 17.3377 235.642 16.808 235.445 16.2296C235.249 15.6512 235.17 15.0367 235.213 14.4249C235.304 13.1446 235.854 11.9462 236.753 11.0665C237.653 10.1868 238.837 9.68958 240.072 9.67316C240.661 9.66596 241.246 9.78621 241.789 10.0263C242.331 10.2664 242.82 10.6211 243.224 11.0679C243.627 11.5146 243.937 12.0438 244.134 12.6217C244.331 13.1996 244.41 13.8136 244.366 14.4249Z" fill="#514698"/>
<path opacity="0.4" d="M151.149 100.533H54.0495C52.8797 100.546 51.7201 100.307 50.6441 99.8292C49.5682 99.3519 48.5994 98.6475 47.7991 97.7605C46.9989 96.8736 46.3847 95.8235 45.9954 94.6768C45.6061 93.5301 45.4503 92.3119 45.5378 91.0993L48.4547 42.0408C48.6341 39.5022 49.7228 37.1258 51.5059 35.3809C53.2889 33.6361 55.6367 32.6498 58.0853 32.6168H155.214C156.383 32.6023 157.542 32.8407 158.617 33.317C159.693 33.7933 160.661 34.497 161.461 35.3833C162.26 36.2697 162.874 37.3193 163.262 38.4655C163.65 39.6116 163.805 40.8292 163.716 42.0408L160.789 91.0893C160.608 93.6308 159.518 96.0095 157.734 97.7574C155.95 99.5052 153.601 100.495 151.149 100.533ZM58.0566 33.0344C55.7148 33.0676 53.4699 34.0119 51.765 35.681C50.0601 37.3502 49.0189 39.6229 48.8468 42.0508L45.9204 91.0993C45.8353 92.2588 45.9834 93.4241 46.3552 94.5209C46.727 95.6177 47.3143 96.6221 48.0798 97.4702C48.8453 98.3182 49.7722 98.9914 50.8016 99.4469C51.831 99.9023 52.9403 100.13 54.059 100.116H151.178C153.52 100.082 155.765 99.1382 157.47 97.469C159.175 95.7999 160.216 93.5272 160.388 91.0993L163.324 42.0408C163.407 40.8816 163.258 39.717 162.886 38.6209C162.514 37.5247 161.926 36.521 161.161 35.6732C160.396 34.8255 159.469 34.1523 158.441 33.6963C157.412 33.2403 156.303 33.0115 155.185 33.0244L58.0566 33.0344Z" fill="#514698"/>
<path d="M65.8413 65.2425L79.7755 74.6168C82.5686 70.3787 86.2801 66.8818 90.6112 64.4075L83.1228 48.999C76.2231 52.9395 70.3052 58.502 65.8413 65.2425Z" fill="#514698"/>
<path opacity="0.8" d="M65.8413 65.2425L79.7755 74.6168C82.5686 70.3787 86.2801 66.8818 90.6112 64.4075L83.1228 48.999C76.2231 52.9395 70.3052 58.502 65.8413 65.2425Z" fill="white"/>
<path d="M57.4438 90.3539H74.5054C74.8629 84.7101 76.6838 79.2722 79.775 74.6175L65.8407 65.2432C60.9124 72.6721 58.0108 81.3493 57.4438 90.3539Z" fill="#263238"/>
<path d="M106.037 42.7959C98.0073 42.8136 90.1119 44.9405 83.0845 48.9792L90.5728 64.4075C94.9674 61.8894 99.9003 60.5597 104.918 60.5404C108.618 60.4918 112.287 61.2446 115.691 62.751C119.096 64.2574 122.161 66.4843 124.692 69.2898C127.223 72.0954 129.164 75.4181 130.391 79.0463C131.618 82.6745 132.105 86.5286 131.821 90.3632H148.882C150.527 64.0894 131.314 42.7959 106.037 42.7959Z" fill="#514698"/>
<path d="M94.9627 118.586H44.9448C44.8331 118.586 44.7224 118.562 44.6199 118.516C44.5173 118.47 44.425 118.402 44.3487 118.317C44.2724 118.233 44.2138 118.132 44.1765 118.023C44.1392 117.913 44.124 117.797 44.1319 117.681L44.3519 114.023C44.3734 113.775 44.4836 113.545 44.6607 113.377C44.8378 113.21 45.0688 113.117 45.3082 113.118H95.3261L94.9627 118.586Z" fill="#514698"/>
<path opacity="0.2" d="M94.9624 118.586H158.083C158.322 118.587 158.553 118.494 158.73 118.327C158.907 118.159 159.017 117.929 159.039 117.681L159.259 114.023C159.267 113.907 159.252 113.791 159.214 113.681C159.177 113.572 159.118 113.471 159.042 113.386C158.966 113.301 158.873 113.234 158.771 113.188C158.668 113.142 158.558 113.118 158.446 113.118H95.3258L94.9624 118.586Z" fill="#514698"/>
<path d="M128.933 133.01H44.0838C43.9716 133.012 43.8603 132.989 43.7571 132.943C43.6538 132.898 43.5609 132.83 43.4843 132.745C43.4078 132.66 43.3492 132.559 43.3124 132.449C43.2757 132.338 43.2615 132.221 43.2709 132.105L43.4908 128.457C43.5124 128.209 43.6226 127.979 43.7996 127.811C43.9767 127.644 44.2078 127.551 44.4472 127.552H129.296L128.933 133.01Z" fill="#514698"/>
<path opacity="0.2" d="M128.932 133.01H157.221C157.461 133.011 157.692 132.919 157.869 132.751C158.046 132.584 158.156 132.353 158.178 132.105L158.398 128.457C158.407 128.341 158.393 128.224 158.356 128.114C158.319 128.003 158.261 127.903 158.184 127.817C158.108 127.732 158.015 127.664 157.912 127.619C157.808 127.573 157.697 127.551 157.585 127.552H129.257L128.932 133.01Z" fill="#514698"/>
<path d="M53.188 147.414H43.2226C43.1109 147.415 43.0003 147.391 42.8977 147.345C42.7952 147.299 42.7029 147.231 42.6266 147.146C42.5503 147.061 42.4916 146.961 42.4543 146.851C42.417 146.742 42.4019 146.626 42.4097 146.51L42.6297 142.851C42.6512 142.604 42.7614 142.373 42.9385 142.206C43.1156 142.038 43.3467 141.946 43.5861 141.947H53.5514L53.188 147.414Z" fill="#514698"/>
<path opacity="0.2" d="M53.1885 147.414H156.38C156.62 147.415 156.851 147.323 157.028 147.156C157.205 146.988 157.315 146.758 157.337 146.51L157.557 142.851C157.565 142.735 157.549 142.618 157.511 142.507C157.473 142.397 157.414 142.296 157.337 142.211C157.259 142.126 157.166 142.059 157.062 142.013C156.958 141.968 156.847 141.945 156.734 141.947H53.5136L53.1885 147.414Z" fill="#514698"/>
<path d="M179.113 147.862C179.062 147.863 179.012 147.854 178.964 147.834C178.917 147.813 178.875 147.783 178.839 147.745C178.804 147.706 178.777 147.66 178.76 147.61C178.743 147.56 178.736 147.507 178.74 147.454L185.588 32.8256C185.595 32.7148 185.643 32.6111 185.721 32.5354C185.799 32.4597 185.902 32.4177 186.009 32.418C186.059 32.4178 186.109 32.4285 186.155 32.4493C186.201 32.4701 186.242 32.5006 186.276 32.5389C186.311 32.5772 186.337 32.6225 186.353 32.6718C186.37 32.7211 186.376 32.7735 186.372 32.8256L179.525 147.415C179.526 147.472 179.516 147.529 179.496 147.583C179.476 147.636 179.446 147.685 179.408 147.727C179.37 147.768 179.324 147.802 179.274 147.825C179.223 147.848 179.169 147.861 179.113 147.862Z" fill="#514698"/>
<path d="M186.821 62.8568C186.764 63.5938 186.446 64.2827 185.928 64.7896C185.411 65.2966 184.73 65.5856 184.019 65.6005C183.679 65.6042 183.341 65.5344 183.028 65.3956C182.715 65.2568 182.434 65.052 182.201 64.7941C181.968 64.5361 181.789 64.2308 181.676 63.8973C181.562 63.5638 181.517 63.2095 181.542 62.8568C181.599 62.1181 181.918 61.4279 182.438 60.9206C182.958 60.4134 183.641 60.1255 184.354 60.1131C184.694 60.1077 185.032 60.1764 185.345 60.3148C185.658 60.4532 185.94 60.6582 186.172 60.9167C186.405 61.1751 186.582 61.4812 186.694 61.8154C186.806 62.1495 186.849 62.5042 186.821 62.8568Z" fill="white"/>
<path d="M184 66.0083C183.609 66.0089 183.222 65.9266 182.863 65.7663C182.504 65.6059 182.18 65.371 181.912 65.0759C181.643 64.7808 181.435 64.4318 181.301 64.0503C181.167 63.6687 181.109 63.2626 181.131 62.857C181.191 62.0067 181.555 61.2104 182.151 60.6252C182.748 60.0401 183.534 59.7085 184.354 59.6958C184.746 59.6951 185.133 59.7777 185.493 59.9387C185.853 60.0996 186.177 60.3354 186.446 60.6316C186.715 60.9278 186.923 61.278 187.056 61.6607C187.19 62.0435 187.247 62.4506 187.223 62.857C187.163 63.7064 186.799 64.5016 186.202 65.0851C185.605 65.6687 184.819 65.9981 184 66.0083ZM184.325 60.5209C183.719 60.5293 183.138 60.774 182.697 61.2066C182.256 61.6393 181.987 62.2283 181.944 62.857C181.923 63.1564 181.962 63.4571 182.058 63.74C182.154 64.0229 182.306 64.282 182.504 64.5007C182.702 64.7193 182.941 64.8929 183.207 65.0104C183.473 65.1279 183.759 65.1868 184.048 65.1832C184.653 65.175 185.233 64.9317 185.674 64.5011C186.114 64.0705 186.384 63.484 186.429 62.857C186.452 62.5569 186.414 62.2551 186.318 61.971C186.223 61.6869 186.071 61.4266 185.873 61.2068C185.675 60.987 185.435 60.8125 185.169 60.6944C184.902 60.5763 184.615 60.5172 184.325 60.5209Z" fill="#514698"/>
<path d="M185.348 87.55C185.292 88.287 184.973 88.9759 184.456 89.4829C183.938 89.9898 183.257 90.2788 182.546 90.2937C182.206 90.2974 181.869 90.2277 181.556 90.0889C181.243 89.95 180.961 89.7452 180.728 89.4873C180.495 89.2294 180.316 88.924 180.203 88.5905C180.09 88.257 180.044 87.9027 180.069 87.55C180.121 86.8094 180.438 86.1157 180.956 85.6046C181.474 85.0935 182.157 84.8018 182.871 84.7864C183.214 84.7809 183.554 84.8502 183.869 84.9897C184.184 85.1292 184.467 85.3358 184.701 85.5963C184.934 85.8567 185.112 86.1652 185.224 86.5017C185.335 86.8382 185.378 87.1954 185.348 87.55Z" fill="white"/>
<path d="M182.527 90.751C182.136 90.7516 181.749 90.6693 181.39 90.5089C181.031 90.3486 180.707 90.1137 180.439 89.8186C180.17 89.5235 179.962 89.1745 179.828 88.7929C179.694 88.4114 179.636 88.0053 179.658 87.5997C179.718 86.7493 180.082 85.9531 180.678 85.3679C181.275 84.7827 182.061 84.4511 182.881 84.4385C183.273 84.4377 183.66 84.5204 184.02 84.6813C184.38 84.8423 184.704 85.0781 184.973 85.3743C185.242 85.6704 185.449 86.0207 185.583 86.4034C185.717 86.7862 185.773 87.1933 185.75 87.5997C185.69 88.4491 185.326 89.2442 184.729 89.8278C184.132 90.4113 183.346 90.7408 182.527 90.751ZM182.852 85.2636C182.246 85.272 181.665 85.5167 181.224 85.9493C180.783 86.382 180.514 86.971 180.471 87.5997C180.448 87.8994 180.486 88.2007 180.582 88.4843C180.678 88.768 180.83 89.0276 181.028 89.2466C181.226 89.4656 181.466 89.6392 181.732 89.7562C181.999 89.8732 182.286 89.931 182.575 89.9259C183.18 89.9177 183.76 89.6744 184.2 89.2438C184.641 88.8132 184.911 88.2267 184.956 87.5997C184.986 87.2956 184.953 86.9884 184.861 86.6983C184.768 86.4082 184.618 86.1417 184.419 85.9164C184.22 85.6911 183.978 85.512 183.708 85.3909C183.438 85.2698 183.146 85.2095 182.852 85.2139V85.2636Z" fill="#514698"/>
<path d="M181.992 99.5591L178.501 105.235H184.813L181.992 99.5591Z" fill="white"/>
<path d="M184.784 105.662H178.472C178.405 105.662 178.34 105.644 178.283 105.609C178.226 105.574 178.179 105.524 178.147 105.463C178.111 105.4 178.093 105.328 178.093 105.255C178.093 105.181 178.111 105.109 178.147 105.046L181.647 99.3697C181.683 99.3101 181.733 99.2611 181.793 99.2271C181.852 99.1931 181.919 99.1753 181.986 99.1753C182.054 99.1753 182.121 99.1931 182.18 99.2271C182.24 99.2611 182.29 99.3101 182.326 99.3697L185.195 105.046C185.224 105.112 185.236 105.185 185.231 105.258C185.225 105.331 185.203 105.401 185.165 105.462C185.127 105.523 185.074 105.574 185.013 105.609C184.951 105.644 184.883 105.662 184.812 105.662H184.784ZM179.208 104.847H184.114L181.915 100.394L179.208 104.847Z" fill="#514698"/>
<path d="M226.625 147.861C226.574 147.863 226.523 147.853 226.476 147.833C226.429 147.813 226.386 147.782 226.351 147.744C226.316 147.705 226.289 147.66 226.272 147.61C226.255 147.56 226.248 147.506 226.252 147.453L233.1 32.8247C233.107 32.714 233.155 32.6102 233.233 32.5346C233.311 32.4589 233.414 32.4169 233.521 32.4172C233.572 32.4156 233.622 32.4252 233.67 32.4454C233.717 32.4656 233.759 32.4959 233.795 32.5344C233.83 32.5728 233.857 32.6186 233.874 32.6686C233.891 32.7186 233.898 32.7718 233.893 32.8247L227.046 147.414C227.046 147.531 227.002 147.643 226.923 147.727C226.845 147.81 226.738 147.858 226.625 147.861Z" fill="#514698"/>
<path d="M231.618 108.356C231.644 108.004 231.6 107.65 231.488 107.316C231.376 106.983 231.198 106.677 230.966 106.419C230.734 106.161 230.452 105.956 230.14 105.817C229.827 105.678 229.49 105.609 229.15 105.612C228.438 105.625 227.755 105.913 227.235 106.42C226.715 106.927 226.396 107.617 226.339 108.356C226.314 108.709 226.359 109.063 226.473 109.397C226.586 109.73 226.765 110.035 226.998 110.293C227.23 110.551 227.512 110.756 227.825 110.895C228.138 111.034 228.475 111.104 228.816 111.1C229.527 111.085 230.207 110.796 230.725 110.289C231.243 109.782 231.561 109.093 231.618 108.356Z" fill="white"/>
<path d="M228.797 111.508C228.406 111.508 228.019 111.426 227.66 111.266C227.301 111.105 226.977 110.87 226.708 110.575C226.439 110.28 226.232 109.931 226.097 109.55C225.963 109.168 225.905 108.762 225.927 108.356C225.987 107.507 226.352 106.712 226.948 106.128C227.545 105.545 228.331 105.215 229.15 105.205C229.541 105.204 229.928 105.287 230.287 105.447C230.646 105.607 230.97 105.842 231.239 106.137C231.508 106.433 231.715 106.782 231.85 107.163C231.984 107.545 232.042 107.951 232.02 108.356C231.96 109.206 231.595 110.001 230.998 110.584C230.402 111.168 229.616 111.497 228.797 111.508ZM229.122 106.02C228.516 106.031 227.936 106.276 227.495 106.709C227.055 107.141 226.786 107.728 226.74 108.356C226.719 108.656 226.758 108.957 226.854 109.241C226.951 109.524 227.103 109.784 227.3 110.003C227.498 110.223 227.737 110.397 228.003 110.516C228.269 110.635 228.555 110.695 228.844 110.692C229.45 110.682 230.03 110.436 230.471 110.004C230.911 109.572 231.181 108.984 231.226 108.356C231.247 108.057 231.208 107.755 231.112 107.472C231.015 107.189 230.864 106.929 230.666 106.709C230.468 106.49 230.229 106.315 229.963 106.197C229.697 106.078 229.411 106.018 229.122 106.02Z" fill="#514698"/>
<path d="M235.309 46.6136C235.335 46.2606 235.291 45.9056 235.178 45.5714C235.065 45.2373 234.886 44.9313 234.653 44.6731C234.42 44.4148 234.138 44.21 233.824 44.0717C233.51 43.9334 233.172 43.8647 232.832 43.8699C232.119 43.8824 231.436 44.1703 230.916 44.6775C230.396 45.1847 230.077 45.8749 230.02 46.6136C229.995 46.9663 230.04 47.3206 230.154 47.6541C230.267 47.9876 230.446 48.2929 230.679 48.5509C230.912 48.8088 231.193 49.0136 231.506 49.1524C231.819 49.2913 232.157 49.361 232.497 49.3573C233.21 49.3448 233.893 49.057 234.412 48.5497C234.932 48.0425 235.252 47.3523 235.309 46.6136Z" fill="white"/>
<path d="M232.478 49.7646C232.085 49.7743 231.694 49.698 231.331 49.5407C230.968 49.3835 230.641 49.1487 230.37 48.8517C230.1 48.5547 229.892 48.202 229.761 47.8165C229.63 47.4309 229.578 47.021 229.609 46.6134C229.669 45.763 230.033 44.9667 230.63 44.3816C231.226 43.7964 232.012 43.4648 232.832 43.4522C233.224 43.4514 233.612 43.5341 233.971 43.695C234.331 43.8559 234.656 44.0918 234.924 44.3879C235.193 44.6841 235.401 45.0343 235.534 45.4171C235.668 45.7998 235.725 46.2069 235.701 46.6134C235.639 47.462 235.274 48.2558 234.678 48.8389C234.082 49.422 233.297 49.7522 232.478 49.7646ZM232.813 44.2773C232.207 44.2856 231.626 44.5304 231.184 44.963C230.743 45.3956 230.475 45.9846 230.432 46.6134C230.409 46.9131 230.447 47.2144 230.543 47.498C230.639 47.7816 230.791 48.0413 230.989 48.2603C231.187 48.4793 231.427 48.6529 231.693 48.7699C231.96 48.8868 232.247 48.9446 232.536 48.9395C233.141 48.9314 233.72 48.688 234.161 48.2575C234.602 47.8269 234.872 47.2403 234.917 46.6134C234.94 46.3132 234.902 46.0115 234.806 45.7273C234.71 45.4432 234.559 45.1829 234.361 44.9631C234.163 44.7434 233.923 44.5688 233.656 44.4508C233.39 44.3327 233.103 44.2736 232.813 44.2773Z" fill="#514698"/>
<path d="M230.632 80.7306L227.82 75.0444H234.123L230.632 80.7306Z" fill="white"/>
<path d="M230.604 81.1381C230.536 81.1381 230.47 81.1186 230.413 81.0817C230.355 81.0449 230.309 80.9921 230.279 80.9293L227.457 75.2531C227.425 75.1905 227.408 75.1205 227.408 75.0493C227.408 74.9781 227.425 74.9081 227.457 74.8455C227.495 74.7824 227.547 74.7302 227.609 74.6937C227.67 74.6572 227.74 74.6376 227.811 74.6367H234.123C234.192 74.636 234.26 74.6551 234.319 74.692C234.378 74.7288 234.426 74.782 234.458 74.8455C234.491 74.9081 234.508 74.9781 234.508 75.0493C234.508 75.1205 234.491 75.1905 234.458 75.2531L230.977 80.9293C230.936 80.9933 230.881 81.0458 230.816 81.0823C230.75 81.1187 230.678 81.1379 230.604 81.1381ZM228.481 75.4618L230.68 79.9054L233.416 75.4618H228.481Z" fill="#514698"/>
<path d="M202.869 147.861C202.818 147.863 202.767 147.853 202.72 147.833C202.673 147.813 202.63 147.782 202.595 147.744C202.56 147.705 202.533 147.66 202.516 147.61C202.499 147.56 202.492 147.506 202.496 147.454L209.344 32.8248C209.351 32.714 209.399 32.6103 209.477 32.5346C209.555 32.4589 209.658 32.4169 209.765 32.4172C209.815 32.4155 209.866 32.4251 209.913 32.4453C209.959 32.4656 210.001 32.4961 210.036 32.5348C210.07 32.5734 210.096 32.6193 210.112 32.6694C210.128 32.7194 210.134 32.7724 210.128 32.8248L203.29 147.414C203.29 147.531 203.246 147.643 203.167 147.727C203.089 147.81 202.982 147.859 202.869 147.861Z" fill="#514698"/>
<path d="M210.166 69.8752C210.109 70.6139 209.79 71.3041 209.27 71.8113C208.75 72.3185 208.067 72.6064 207.355 72.6189C207.014 72.6242 206.677 72.5555 206.364 72.4171C206.05 72.2787 205.768 72.0737 205.536 71.8153C205.304 71.5569 205.126 71.2507 205.014 70.9166C204.902 70.5825 204.859 70.2277 204.887 69.8752C204.944 69.1381 205.262 68.4493 205.78 67.9423C206.298 67.4353 206.978 67.1464 207.689 67.1315C208.03 67.1278 208.367 67.1975 208.68 67.3363C208.993 67.4751 209.275 67.68 209.508 67.9379C209.74 68.1958 209.919 68.5012 210.033 68.8347C210.146 69.1681 210.192 69.5225 210.166 69.8752Z" fill="white"/>
<path d="M207.335 73.0556C206.943 73.0564 206.556 72.9737 206.196 72.8128C205.836 72.6519 205.512 72.416 205.243 72.1199C204.974 71.8237 204.767 71.4735 204.633 71.0907C204.499 70.708 204.443 70.3009 204.466 69.8944C204.526 69.045 204.89 68.2499 205.487 67.6663C206.084 67.0828 206.87 66.7533 207.689 66.7432C208.08 66.7425 208.467 66.8249 208.826 66.9852C209.185 67.1455 209.509 67.3804 209.778 67.6755C210.046 67.9706 210.254 68.3196 210.388 68.7012C210.522 69.0828 210.58 69.4888 210.558 69.8944C210.498 70.7448 210.134 71.5411 209.538 72.1262C208.941 72.7114 208.155 73.043 207.335 73.0556ZM207.66 67.5583C207.055 67.569 206.475 67.8145 206.034 68.2466C205.594 68.6788 205.324 69.2665 205.279 69.8944C205.258 70.1943 205.297 70.4954 205.393 70.7788C205.489 71.0623 205.641 71.3219 205.839 71.5414C206.037 71.7609 206.276 71.9354 206.542 72.054C206.807 72.1726 207.094 72.2327 207.383 72.2305C207.989 72.2199 208.569 71.9744 209.009 71.5422C209.45 71.1101 209.719 70.5224 209.764 69.8944C209.787 69.5943 209.749 69.2925 209.653 69.0084C209.558 68.7243 209.406 68.464 209.208 68.2442C209.01 68.0244 208.77 67.8499 208.504 67.7318C208.237 67.6137 207.95 67.5546 207.66 67.5583Z" fill="#514698"/>
<path d="M206.886 124.809C206.829 125.546 206.511 126.235 205.993 126.742C205.475 127.249 204.795 127.538 204.084 127.552C203.743 127.558 203.405 127.489 203.091 127.351C202.778 127.212 202.495 127.008 202.262 126.749C202.029 126.491 201.85 126.185 201.737 125.851C201.624 125.517 201.58 125.162 201.607 124.809C201.663 124.072 201.982 123.383 202.499 122.876C203.017 122.369 203.698 122.08 204.409 122.065C204.749 122.061 205.086 122.131 205.399 122.27C205.712 122.409 205.994 122.614 206.227 122.872C206.46 123.129 206.639 123.435 206.752 123.768C206.865 124.102 206.911 124.456 206.886 124.809Z" fill="white"/>
<path d="M204.055 127.96C203.664 127.961 203.277 127.878 202.918 127.718C202.559 127.558 202.235 127.323 201.966 127.028C201.698 126.733 201.49 126.383 201.356 126.002C201.221 125.62 201.164 125.214 201.186 124.809C201.245 123.958 201.609 123.162 202.206 122.577C202.803 121.992 203.589 121.66 204.409 121.647C204.8 121.647 205.188 121.729 205.548 121.89C205.908 122.051 206.232 122.287 206.501 122.583C206.77 122.879 206.977 123.23 207.111 123.612C207.244 123.995 207.301 124.402 207.278 124.809C207.218 125.658 206.854 126.453 206.257 127.037C205.66 127.62 204.874 127.95 204.055 127.96ZM204.38 122.473C203.774 122.481 203.192 122.726 202.751 123.158C202.31 123.591 202.042 124.18 201.999 124.809C201.977 125.108 202.016 125.409 202.113 125.692C202.209 125.975 202.361 126.234 202.559 126.452C202.757 126.671 202.996 126.845 203.262 126.962C203.528 127.08 203.814 127.138 204.103 127.135C204.707 127.127 205.287 126.883 205.728 126.453C206.169 126.022 206.439 125.436 206.484 124.809C206.507 124.509 206.469 124.207 206.373 123.923C206.277 123.638 206.125 123.378 205.928 123.158C205.73 122.939 205.49 122.764 205.223 122.646C204.957 122.528 204.67 122.469 204.38 122.473Z" fill="#514698"/>
<path d="M209.42 38.1836L205.919 43.8698H212.231L209.42 38.1836Z" fill="white"/>
<path d="M212.204 44.2773H205.901C205.832 44.278 205.764 44.2589 205.705 44.2221C205.646 44.1852 205.598 44.1321 205.566 44.0685C205.534 44.006 205.517 43.9359 205.517 43.8648C205.517 43.7936 205.534 43.7235 205.566 43.661L209.057 37.9847C209.094 37.9252 209.146 37.8764 209.206 37.8425C209.266 37.8087 209.333 37.791 209.401 37.791C209.47 37.791 209.537 37.8087 209.597 37.8425C209.657 37.8764 209.708 37.9252 209.746 37.9847L212.557 43.661C212.593 43.7226 212.611 43.793 212.611 43.8648C212.611 43.9365 212.593 44.0069 212.557 44.0685C212.518 44.1298 212.466 44.1806 212.404 44.2169C212.343 44.2532 212.274 44.2739 212.204 44.2773ZM206.637 43.4522H211.572L209.363 39.0583L206.637 43.4522Z" fill="#514698"/>
</svg>
