<svg width="30" height="30" viewBox="0 0 30 30" fill="none" xmlns="http://www.w3.org/2000/svg">
<path fill-rule="evenodd" clip-rule="evenodd" d="M22.5227 27.9801C20.3113 29.2645 17.7416 30 15 30C6.71573 30 0 23.2843 0 15C0 6.71573 6.71573 0 15 0C23.2843 0 30 6.71573 30 15C30 17.7416 29.2645 20.3113 27.9801 22.5227C27.8221 22.5077 27.6619 22.5 27.5 22.5C24.7386 22.5 22.5 24.7386 22.5 27.5C22.5 27.6619 22.5077 27.8221 22.5227 27.9801ZM23.75 15C23.75 19.8325 19.8325 23.75 15 23.75C10.1675 23.75 6.25 19.8325 6.25 15C6.25 10.1675 10.1675 6.25 15 6.25C19.8325 6.25 23.75 10.1675 23.75 15ZM29.9961 27.4991C29.9961 28.8799 28.8768 29.9991 27.4961 29.9991C26.1154 29.9991 24.9961 28.8799 24.9961 27.4991C24.9961 26.1184 26.1154 24.9991 27.4961 24.9991C28.8768 24.9991 29.9961 26.1184 29.9961 27.4991Z" fill="#2697FE"/>
</svg>
