<svg width="150" height="37" viewBox="0 0 150 37" fill="none" xmlns="http://www.w3.org/2000/svg">
<path fill-rule="evenodd" clip-rule="evenodd" d="M22.5227 27.9801C20.3113 29.2645 17.7416 30 15 30C6.71573 30 0 23.2843 0 15C0 6.71573 6.71573 0 15 0C23.2843 0 30 6.71573 30 15C30 17.7416 29.2645 20.3113 27.9801 22.5227C27.8221 22.5077 27.6619 22.5 27.5 22.5C24.7386 22.5 22.5 24.7386 22.5 27.5C22.5 27.6619 22.5077 27.8221 22.5227 27.9801ZM23.75 15C23.75 19.8325 19.8325 23.75 15 23.75C10.1675 23.75 6.25 19.8325 6.25 15C6.25 10.1675 10.1675 6.25 15 6.25C19.8325 6.25 23.75 10.1675 23.75 15ZM29.9961 27.4991C29.9961 28.8799 28.8768 29.9991 27.4961 29.9991C26.1154 29.9991 24.9961 28.8799 24.9961 27.4991C24.9961 26.1184 26.1154 24.9991 27.4961 24.9991C28.8768 24.9991 29.9961 26.1184 29.9961 27.4991Z" fill="#2697FE"/>
<path d="M40.84 10.4038V21.3298C40.84 22.3601 41.1525 23.1987 41.7773 23.8457C42.4262 24.4686 43.2674 24.7801 44.3008 24.7801C45.0458 24.7801 45.7067 24.6483 46.2835 24.3848C46.8603 24.1212 47.341 23.7498 47.7255 23.2706V10.4038H53.5655V29.4165H47.7255V28.1226C47.0285 28.6498 46.2354 29.0571 45.3462 29.3446C44.481 29.6321 43.5678 29.7759 42.6065 29.7759C40.3714 29.7759 38.5449 29.0571 37.1269 27.6194C35.709 26.1818 35 24.3488 35 22.1205V16.2438C35 13.0185 37.6147 10.4038 40.84 10.4038Z" fill="#27292C"/>
<path d="M63.2747 29.74C61.2559 29.74 59.5976 29.1889 58.2998 28.0867C57.0021 26.9845 56.3532 25.5708 56.3532 23.8457C56.3532 22.0486 57.0381 20.6469 58.408 19.6406C59.8019 18.6342 61.7366 18.1311 64.212 18.1311C64.957 18.1311 65.69 18.179 66.411 18.2748C67.132 18.3707 67.8409 18.5025 68.5379 18.6702V17.7357C68.5379 16.7773 68.2255 16.0705 67.6006 15.6152C66.9998 15.136 66.0985 14.8964 64.8969 14.8964C64.1519 14.8964 63.3107 15.0162 62.3734 15.2558C61.4361 15.4954 60.3547 15.8788 59.129 16.4059C57.9846 14.0651 59.0044 11.1647 61.5443 10.5835C63.0343 10.2241 64.5004 10.0444 65.9423 10.0444C68.586 10.0444 70.6408 10.6794 72.1068 11.9493C73.5728 13.1952 74.3058 14.9563 74.3058 17.2326V29.4165H68.5379V28.2664C67.7688 28.7935 66.9517 29.1769 66.0865 29.4165C65.2454 29.6321 64.3081 29.74 63.2747 29.74ZM61.9048 23.7378C61.9048 24.3369 62.1691 24.8041 62.6979 25.1395C63.2266 25.475 63.9596 25.6427 64.8969 25.6427C65.5939 25.6427 66.2427 25.5708 66.8436 25.4271C67.4684 25.2833 68.0332 25.0557 68.5379 24.7442V22.3002C67.9851 22.1564 67.4204 22.0486 66.8436 21.9767C66.2668 21.9049 65.678 21.8689 65.0771 21.8689C64.0678 21.8689 63.2867 22.0366 62.7339 22.3721C62.1812 22.6836 61.9048 23.1388 61.9048 23.7378Z" fill="#27292C"/>
<path d="M83.617 3V29.4165H77.777V10.2319C77.777 6.74652 80.2098 3.73391 83.617 3Z" fill="#27292C"/>
<path d="M86.3467 19.9281C86.3467 18.5624 86.611 17.2805 87.1397 16.0824C87.6925 14.8605 88.4255 13.8062 89.3388 12.9197C90.2761 12.0331 91.3696 11.3383 92.6193 10.8351C93.893 10.308 95.2509 10.0444 96.6929 10.0444C98.1349 10.0444 99.4807 10.308 100.73 10.8351C102.004 11.3383 103.098 12.0331 104.011 12.9197C104.948 13.8062 105.681 14.8605 106.21 16.0824C106.763 17.2805 107.039 18.5624 107.039 19.9281C107.039 21.2939 106.763 22.5877 106.21 23.8097C105.681 25.0077 104.948 26.05 104.011 26.9366C103.098 27.8231 102.004 28.518 100.73 29.0211C99.4807 29.5243 98.1349 29.7759 96.6929 29.7759C95.2509 29.7759 93.893 29.5243 92.6193 29.0211C91.3696 28.518 90.2761 27.8231 89.3388 26.9366C88.4255 26.05 87.6925 25.0077 87.1397 23.8097C86.611 22.5877 86.3467 21.2939 86.3467 19.9281ZM96.6929 24.7442C97.9907 24.7442 99.0842 24.277 99.9734 23.3425C100.887 22.408 101.343 21.2699 101.343 19.9281C101.343 18.5624 100.887 17.4123 99.9734 16.4778C99.0842 15.5433 97.9907 15.0761 96.6929 15.0761C95.3951 15.0761 94.2896 15.5433 93.3763 16.4778C92.4871 17.4123 92.0425 18.5624 92.0425 19.9281C92.0425 21.2699 92.4871 22.408 93.3763 23.3425C94.2896 24.277 95.3951 24.7442 96.6929 24.7442Z" fill="#27292C"/>
<path d="M115.618 37C112.393 37 109.778 34.3853 109.778 31.16V16.1717C109.778 12.9862 112.36 10.4038 115.546 10.4038V11.8055C116.291 11.2784 117.096 10.871 117.961 10.5835C118.826 10.296 119.728 10.1522 120.665 10.1522C122.011 10.1522 123.273 10.4038 124.45 10.907C125.652 11.4101 126.685 12.105 127.55 12.9915C128.44 13.8781 129.137 14.9204 129.641 16.1184C130.146 17.2925 130.398 18.5624 130.398 19.9281C130.398 21.2939 130.134 22.5758 129.605 23.7738C129.101 24.9478 128.404 25.9781 127.514 26.8647C126.625 27.7273 125.568 28.4101 124.342 28.9133C123.14 29.4165 121.855 29.6681 120.485 29.6681C119.595 29.6681 118.742 29.5602 117.925 29.3446C117.108 29.129 116.339 28.8175 115.618 28.4101V37ZM119.656 15.112C118.838 15.112 118.093 15.2438 117.421 15.5074C116.748 15.747 116.147 16.1184 115.618 16.6216V23.2706C116.123 23.7259 116.724 24.0853 117.421 24.3488C118.117 24.6124 118.862 24.7442 119.656 24.7442C121.074 24.7442 122.263 24.2889 123.224 23.3784C124.186 22.444 124.666 21.2939 124.666 19.9281C124.666 18.5624 124.174 17.4242 123.188 16.5137C122.227 15.5793 121.049 15.112 119.656 15.112Z" fill="#27292C"/>
<path d="M131.676 27.296L132.342 26.3553C133.533 24.6752 135.783 24.2963 137.732 24.9598C138.718 25.2713 139.691 25.4271 140.652 25.4271C141.614 25.4271 142.371 25.2953 142.923 25.0317C143.5 24.7442 143.788 24.3728 143.788 23.9175C143.788 23.5581 143.632 23.2706 143.32 23.055C143.007 22.8154 142.515 22.6476 141.842 22.5518L138.057 21.9767C136.182 21.6892 134.74 21.0662 133.731 20.1078C132.721 19.1254 132.217 17.8555 132.217 16.2981C132.217 14.3813 132.95 12.8717 134.416 11.7696C135.882 10.6674 137.888 10.1163 140.436 10.1163C141.806 10.1163 143.176 10.3199 144.546 10.7273C145.939 11.1106 147.225 11.6737 148.403 12.4165L147.556 13.557C146.457 15.0367 144.445 15.3594 142.671 14.8605C141.734 14.5729 140.796 14.4292 139.859 14.4292C139.114 14.4292 138.513 14.561 138.057 14.8245C137.6 15.0641 137.372 15.3876 137.372 15.7949C137.372 16.1783 137.54 16.4898 137.876 16.7294C138.213 16.945 138.79 17.1128 139.607 17.2326L143.392 17.8076C145.267 18.0712 146.709 18.6941 147.718 19.6765C148.751 20.635 149.268 21.8569 149.268 23.3425C149.268 24.253 149.052 25.1036 148.619 25.8943C148.187 26.685 147.586 27.3679 146.817 27.9429C146.072 28.518 145.17 28.9732 144.113 29.3087C143.055 29.6202 141.914 29.7759 140.688 29.7759C138.886 29.7759 137.203 29.5722 135.641 29.1649C134.103 28.7336 132.781 28.1106 131.676 27.296Z" fill="#27292C"/>
</svg>
